<svg width="2473" height="2081" xmlns="http://www.w3.org/2000/svg" xmlns:xlink="http://www.w3.org/1999/xlink" xml:space="preserve" overflow="hidden"><g transform="translate(-671 -250)"><path d="M1011.5 639.863 1184.86 466.5 2528.5 466.5 2528.5 1544.14 2355.14 1717.5 1011.5 1717.5ZM1011.5 639.863 2355.14 639.863 2528.5 466.5M2355.14 639.863 2355.14 1717.5" stroke="#000000" stroke-width="6.875" stroke-miterlimit="8" fill="none" fill-rule="evenodd"/><path d="M1183.5 474.5 1183.5 1545.84" stroke="#000000" stroke-width="6.875" stroke-miterlimit="8" stroke-dasharray="55 20.625" fill="none" fill-rule="evenodd"/><path d="M0 0 171.971 163.838" stroke="#000000" stroke-width="6.875" stroke-miterlimit="8" stroke-dasharray="55 20.625" fill="none" fill-rule="evenodd" transform="matrix(-1 0 0 1 1183.47 1554.5)"/><path d="M0 0 1345.56 0.000360892" stroke="#000000" stroke-width="6.875" stroke-miterlimit="8" stroke-dasharray="55 20.625" fill="none" fill-rule="evenodd" transform="matrix(-1 0 0 1 2529.06 1545.5)"/><text font-family="Arial,Arial_MSFontService,sans-serif" font-weight="400" font-size="83" transform="matrix(1 0 0 1 1241.41 1470)">P0, (0,0,0)</text><path d="M1160.5 1546C1160.5 1533.57 1170.8 1523.5 1183.5 1523.5 1196.2 1523.5 1206.5 1533.57 1206.5 1546 1206.5 1558.43 1196.2 1568.5 1183.5 1568.5 1170.8 1568.5 1160.5 1558.43 1160.5 1546Z" stroke="#000000" stroke-width="6.875" stroke-miterlimit="8" fill-rule="evenodd"/><path d="M2494.5 1546C2494.5 1533.57 2504.8 1523.5 2517.5 1523.5 2530.2 1523.5 2540.5 1533.57 2540.5 1546 2540.5 1558.43 2530.2 1568.5 2517.5 1568.5 2504.8 1568.5 2494.5 1558.43 2494.5 1546Z" stroke="#000000" stroke-width="6.875" stroke-miterlimit="8" fill-rule="evenodd"/><path d="M2329.5 1706.5C2329.5 1693.8 2339.8 1683.5 2352.5 1683.5 2365.2 1683.5 2375.5 1693.8 2375.5 1706.5 2375.5 1719.2 2365.2 1729.5 2352.5 1729.5 2339.8 1729.5 2329.5 1719.2 2329.5 1706.5Z" stroke="#000000" stroke-width="6.875" stroke-miterlimit="8" fill-rule="evenodd"/><path d="M995.5 1717.5C995.5 1704.8 1005.8 1694.5 1018.5 1694.5 1031.2 1694.5 1041.5 1704.8 1041.5 1717.5 1041.5 1730.2 1031.2 1740.5 1018.5 1740.5 1005.8 1740.5 995.5 1730.2 995.5 1717.5Z" stroke="#000000" stroke-width="6.875" stroke-miterlimit="8" fill-rule="evenodd"/><path d="M995.5 633.5C995.5 620.797 1005.8 610.5 1018.5 610.5 1031.2 610.5 1041.5 620.797 1041.5 633.5 1041.5 646.203 1031.2 656.5 1018.5 656.5 1005.8 656.5 995.5 646.203 995.5 633.5Z" stroke="#000000" stroke-width="6.875" stroke-miterlimit="8" fill-rule="evenodd"/><path d="M1160.5 469.5C1160.5 456.797 1170.8 446.5 1183.5 446.5 1196.2 446.5 1206.5 456.797 1206.5 469.5 1206.5 482.203 1196.2 492.5 1183.5 492.5 1170.8 492.5 1160.5 482.203 1160.5 469.5Z" stroke="#000000" stroke-width="6.875" stroke-miterlimit="8" fill-rule="evenodd"/><path d="M2506.5 466.5C2506.5 453.797 2516.57 443.5 2529 443.5 2541.43 443.5 2551.5 453.797 2551.5 466.5 2551.5 479.203 2541.43 489.5 2529 489.5 2516.57 489.5 2506.5 479.203 2506.5 466.5Z" stroke="#000000" stroke-width="6.875" stroke-miterlimit="8" fill-rule="evenodd"/><path d="M2329.5 633.5C2329.5 620.797 2339.8 610.5 2352.5 610.5 2365.2 610.5 2375.5 620.797 2375.5 633.5 2375.5 646.203 2365.2 656.5 2352.5 656.5 2339.8 656.5 2329.5 646.203 2329.5 633.5Z" stroke="#000000" stroke-width="6.875" stroke-miterlimit="8" fill-rule="evenodd"/><text font-family="Arial,Arial_MSFontService,sans-serif" font-weight="400" font-size="83" transform="matrix(1 0 0 1 2622.31 1470)">P1, (0.4,0,0)</text><text font-family="Arial,Arial_MSFontService,sans-serif" font-weight="400" font-size="83" transform="matrix(1 0 0 1 2382.66 1868)">P5, (0.4,0,0.1)</text><path d="M2.06492-2.74818 130.601 93.8303 126.471 99.3267-2.06492 2.74818ZM119.355 65.9012 133.99 100.677 96.5153 96.2986C94.6296 96.0783 93.2796 94.371 93.4999 92.4854 93.7202 90.5997 95.4274 89.2497 97.3131 89.47L128.935 93.1645 125.368 97.9122 113.018 68.568C112.282 66.8181 113.104 64.8026 114.853 64.0662 116.603 63.3298 118.619 64.1514 119.355 65.9012Z" fill="#E97132" transform="matrix(-1 0 0 1 840.477 2115.5)"/><path d="M840.5 2112.06 1045.97 2112.06 1045.97 2118.94 840.5 2118.94ZM1020.2 2096.49 1052.79 2115.5 1020.2 2134.51C1018.56 2135.47 1016.46 2134.91 1015.5 2133.27 1014.55 2131.63 1015.1 2129.53 1016.74 2128.57L1044.24 2112.53 1044.24 2118.47 1016.74 2102.43C1015.1 2101.47 1014.55 2099.37 1015.5 2097.73 1016.46 2096.09 1018.56 2095.53 1020.2 2096.49Z" fill="#E97132"/><path d="M3.4375-6.14886e-06 3.43785 194.949-3.43715 194.949-3.4375 6.14886e-06ZM19.0112 169.182 0.000360957 201.772-19.0106 169.182C-19.9672 167.542-19.4133 165.437-17.7734 164.48-16.1336 163.524-14.0287 164.078-13.0721 165.718L2.96958 193.217-2.96889 193.217 13.0727 165.717C14.0293 164.078 16.1342 163.524 17.774 164.48 19.4139 165.437 19.9678 167.542 19.0112 169.182Z" fill="#E97132" transform="matrix(1 0 0 -1 839.5 2117.26)"/><text fill="#E97132" font-family="Arial,Arial_MSFontService,sans-serif" font-weight="400" font-size="83" transform="matrix(1 0 0 1 1027.83 2200)">x</text><text fill="#E97132" font-family="Arial,Arial_MSFontService,sans-serif" font-weight="400" font-size="83" transform="matrix(1 0 0 1 757.974 2262)">z</text><text fill="#E97132" font-family="Arial,Arial_MSFontService,sans-serif" font-weight="400" font-size="83" transform="matrix(1 0 0 1 757.973 1928)">y</text><text font-family="Arial,Arial_MSFontService,sans-serif" font-weight="400" font-size="83" transform="matrix(1 0 0 1 1050.83 1868)">P4, (0,0,0.1)</text><text font-family="Arial,Arial_MSFontService,sans-serif" font-weight="400" font-size="83" transform="matrix(1 0 0 1 1241.41 356)">P3, (0,0.4,0)</text><text font-family="Arial,Arial_MSFontService,sans-serif" font-weight="400" font-size="83" transform="matrix(1 0 0 1 2382.66 356)">P2, (0.4,0.4,0)</text><rect x="2264" y="720" width="724" height="133" fill="#FFFFFF"/><text font-family="Arial,Arial_MSFontService,sans-serif" font-weight="400" font-size="83" transform="matrix(1 0 0 1 2297.04 816)">P6, (0.4,0.4,0.1)</text><rect x="847" y="733" width="724" height="134" fill="#FFFFFF"/><text font-family="Arial,Arial_MSFontService,sans-serif" font-weight="400" font-size="83" transform="matrix(1 0 0 1 879.949 830)">P7, (0,0.4,0.1)</text><text fill="#FF0000" font-family="Arial,Arial_MSFontService,sans-serif" font-weight="700" font-size="83" transform="matrix(1 0 0 1 1566.98 1646)">Symmetry</text><rect x="2173" y="1076" width="686" height="134" fill="#FFFFFF"/><text fill="#FF0000" font-family="Arial,Arial_MSFontService,sans-serif" font-weight="700" font-size="83" transform="matrix(1 0 0 1 2206.12 1173)">PressureOutlet</text><rect x="1448" y="474" width="685" height="133" fill="#FFFFFF"/><text fill="#FF0000" font-family="Arial,Arial_MSFontService,sans-serif" font-weight="700" font-size="83" transform="matrix(1 0 0 1 1481.06 571)">PressureOutlet</text><rect x="710" y="1061" width="545" height="134" fill="#FFFFFF"/><text fill="#FF0000" font-family="Arial,Arial_MSFontService,sans-serif" font-weight="700" font-size="83" transform="matrix(1 0 0 1 742.971 1158)">Symmetry</text></g></svg>