<svg width="2603" height="2058" xmlns="http://www.w3.org/2000/svg" xmlns:xlink="http://www.w3.org/1999/xlink" xml:space="preserve" overflow="hidden"><g transform="translate(-993 -220)"><path d="M2.06492-2.74818 130.601 93.8303 126.471 99.3267-2.06492 2.74818ZM119.355 65.9012 133.99 100.677 96.5153 96.2986C94.6296 96.0783 93.2796 94.371 93.4999 92.4854 93.7202 90.5997 95.4274 89.2497 97.3131 89.47L128.935 93.1645 125.368 97.9122 113.018 68.568C112.282 66.8181 113.104 64.8026 114.853 64.0662 116.603 63.3298 118.619 64.1514 119.355 65.9012Z" fill="#E97132" transform="matrix(-1 0 0 1 1162.48 1874.5)"/><path d="M1162.5 1871.06 1367.97 1871.06 1367.97 1877.94 1162.5 1877.94ZM1342.2 1855.49 1374.79 1874.5 1342.2 1893.51C1340.56 1894.47 1338.46 1893.91 1337.5 1892.27 1336.55 1890.63 1337.1 1888.53 1338.74 1887.57L1366.24 1871.53 1366.24 1877.47 1338.74 1861.43C1337.1 1860.47 1336.55 1858.37 1337.5 1856.73 1338.46 1855.09 1340.56 1854.53 1342.2 1855.49Z" fill="#E97132"/><path d="M3.4375-6.14886e-06 3.43785 194.949-3.43715 194.949-3.4375 6.14886e-06ZM19.0112 169.182 0.000360957 201.772-19.0106 169.182C-19.9672 167.542-19.4133 165.437-17.7734 164.48-16.1336 163.524-14.0287 164.078-13.0721 165.718L2.96958 193.217-2.96889 193.217 13.0727 165.717C14.0293 164.078 16.1342 163.524 17.774 164.48 19.4139 165.437 19.9678 167.542 19.0112 169.182Z" fill="#E97132" transform="matrix(1 0 0 -1 1160.5 1876.26)"/><text fill="#E97132" font-family="Arial,Arial_MSFontService,sans-serif" font-weight="400" font-size="83" transform="matrix(1 0 0 1 1349.03 1959)">x</text><text fill="#E97132" font-family="Arial,Arial_MSFontService,sans-serif" font-weight="400" font-size="83" transform="matrix(1 0 0 1 1079.17 2020)">y</text><text fill="#E97132" font-family="Arial,Arial_MSFontService,sans-serif" font-weight="400" font-size="83" transform="matrix(1 0 0 1 1079.17 1686)">z</text><rect x="1482.5" y="512.5" width="1517" height="1513" stroke="#042433" stroke-width="6.875" stroke-miterlimit="8" fill="none"/><path d="M0 0 1416.33 108.206" stroke="#000000" stroke-width="6.875" stroke-miterlimit="8" stroke-dasharray="55 20.625" fill="none" fill-rule="evenodd" transform="matrix(-1 0 0 1 2906.83 1917.5)"/><path d="M2906.5 399.5 2906.5 1917.34" stroke="#000000" stroke-width="6.875" stroke-miterlimit="8" stroke-dasharray="55 20.625" fill="none" fill-rule="evenodd"/><path d="M2999.12 2025.38 2906.5 1910.5" stroke="#000000" stroke-width="6.875" stroke-miterlimit="8" stroke-dasharray="55 20.625" fill="none" fill-rule="evenodd"/><path d="M2999.12 514.383 2906.5 399.5" stroke="#000000" stroke-width="6.875" stroke-miterlimit="8" fill="none" fill-rule="evenodd"/><path d="M0 0 1424.86 113.517" stroke="#000000" stroke-width="6.875" stroke-miterlimit="8" fill="none" fill-rule="evenodd" transform="matrix(-1 0 0 1 2907.36 399.5)"/><text font-family="Arial,Arial_MSFontService,sans-serif" font-weight="400" font-size="83" transform="matrix(1 0 0 1 2388.4 1844)">P1 </text><text font-family="Arial,Arial_MSFontService,sans-serif" font-weight="400" font-size="83" transform="matrix(1 0 0 1 2512.15 1844)">(X</text><text font-family="Arial,Arial_MSFontService,sans-serif" font-weight="400" font-size="83" transform="matrix(1 0 0 1 2594.65 1844)">,</text><text font-family="Arial,Arial_MSFontService,sans-serif" font-weight="400" font-size="83" transform="matrix(1 0 0 1 2638.99 1844)">YN</text><text font-family="Arial,Arial_MSFontService,sans-serif" font-weight="400" font-size="83" transform="matrix(1 0 0 1 2753.57 1844)">,</text><text font-family="Arial,Arial_MSFontService,sans-serif" font-weight="400" font-size="83" transform="matrix(1 0 0 1 2799.41 1844)">0</text><text font-family="Arial,Arial_MSFontService,sans-serif" font-weight="400" font-size="83" transform="matrix(1 0 0 1 2845.24 1844)">)</text><text font-family="Arial,Arial_MSFontService,sans-serif" font-weight="400" font-size="83" transform="matrix(1 0 0 1 1459.57 2154)">P0 </text><text font-family="Arial,Arial_MSFontService,sans-serif" font-weight="400" font-size="83" transform="matrix(1 0 0 1 1583.32 2154)">(0</text><text font-family="Arial,Arial_MSFontService,sans-serif" font-weight="400" font-size="83" transform="matrix(1 0 0 1 1656.65 2154)">,</text><text font-family="Arial,Arial_MSFontService,sans-serif" font-weight="400" font-size="83" transform="matrix(1 0 0 1 1702.48 2154)">0,</text><text font-family="Arial,Arial_MSFontService,sans-serif" font-weight="400" font-size="83" transform="matrix(1 0 0 1 1794.15 2154)">0</text><text font-family="Arial,Arial_MSFontService,sans-serif" font-weight="400" font-size="83" transform="matrix(1 0 0 1 1839.98 2154)">)</text><path d="M1450.5 2025.5C1450.5 2012.8 1460.57 2002.5 1473 2002.5 1485.43 2002.5 1495.5 2012.8 1495.5 2025.5 1495.5 2038.2 1485.43 2048.5 1473 2048.5 1460.57 2048.5 1450.5 2038.2 1450.5 2025.5Z" stroke="#000000" stroke-width="6.875" stroke-miterlimit="8" fill-rule="evenodd"/><path d="M2884.5 1915.5C2884.5 1902.8 2894.8 1892.5 2907.5 1892.5 2920.2 1892.5 2930.5 1902.8 2930.5 1915.5 2930.5 1928.2 2920.2 1938.5 2907.5 1938.5 2894.8 1938.5 2884.5 1928.2 2884.5 1915.5Z" stroke="#000000" stroke-width="6.875" stroke-miterlimit="8" fill-rule="evenodd"/><path d="M2976.5 2025.5C2976.5 2012.8 2986.57 2002.5 2999 2002.5 3011.43 2002.5 3021.5 2012.8 3021.5 2025.5 3021.5 2038.2 3011.43 2048.5 2999 2048.5 2986.57 2048.5 2976.5 2038.2 2976.5 2025.5Z" stroke="#000000" stroke-width="6.875" stroke-miterlimit="8" fill-rule="evenodd"/><path d="M2976.5 512.5C2976.5 499.797 2986.57 489.5 2999 489.5 3011.43 489.5 3021.5 499.797 3021.5 512.5 3021.5 525.203 3011.43 535.5 2999 535.5 2986.57 535.5 2976.5 525.203 2976.5 512.5Z" stroke="#000000" stroke-width="6.875" stroke-miterlimit="8" fill-rule="evenodd"/><path d="M2879.5 403.5C2879.5 390.797 2889.8 380.5 2902.5 380.5 2915.2 380.5 2925.5 390.797 2925.5 403.5 2925.5 416.203 2915.2 426.5 2902.5 426.5 2889.8 426.5 2879.5 416.203 2879.5 403.5Z" stroke="#000000" stroke-width="6.875" stroke-miterlimit="8" fill-rule="evenodd"/><path d="M1459.5 522.5C1459.5 509.797 1469.8 499.5 1482.5 499.5 1495.2 499.5 1505.5 509.797 1505.5 522.5 1505.5 535.203 1495.2 545.5 1482.5 545.5 1469.8 545.5 1459.5 535.203 1459.5 522.5Z" stroke="#000000" stroke-width="6.875" stroke-miterlimit="8" fill-rule="evenodd"/><text font-family="Arial,Arial_MSFontService,sans-serif" font-weight="400" font-size="83" transform="matrix(1 0 0 1 2708.23 2209)">P2 </text><text font-family="Arial,Arial_MSFontService,sans-serif" font-weight="400" font-size="83" transform="matrix(1 0 0 1 2831.98 2209)">(X</text><text font-family="Arial,Arial_MSFontService,sans-serif" font-weight="400" font-size="83" transform="matrix(1 0 0 1 2914.48 2209)">,</text><text font-family="Arial,Arial_MSFontService,sans-serif" font-weight="400" font-size="83" transform="matrix(1 0 0 1 2958.82 2209)">YP, </text><text font-family="Arial,Arial_MSFontService,sans-serif" font-weight="400" font-size="83" transform="matrix(1 0 0 1 3104.02 2209)">0)</text><text font-family="Arial,Arial_MSFontService,sans-serif" font-weight="400" font-size="83" transform="matrix(1 0 0 1 2607.28 326)">P4 </text><text font-family="Arial,Arial_MSFontService,sans-serif" font-weight="400" font-size="83" transform="matrix(1 0 0 1 2731.03 326)">(</text><text font-family="Arial,Arial_MSFontService,sans-serif" font-weight="400" font-size="83" transform="matrix(1 0 0 1 2758.53 326)">X,</text><text font-family="Arial,Arial_MSFontService,sans-serif" font-weight="400" font-size="83" transform="matrix(1 0 0 1 2857.88 326)">Y</text><text font-family="Arial,Arial_MSFontService,sans-serif" font-weight="400" font-size="83" transform="matrix(1 0 0 1 2912.88 326)">N</text><text font-family="Arial,Arial_MSFontService,sans-serif" font-weight="400" font-size="83" transform="matrix(1 0 0 1 2972.46 326)">, L</text><text font-family="Arial,Arial_MSFontService,sans-serif" font-weight="400" font-size="83" transform="matrix(1 0 0 1 3064.13 326)">)</text><text font-family="Arial,Arial_MSFontService,sans-serif" font-weight="400" font-size="83" transform="matrix(1 0 0 1 1299.6 429)">P3 </text><text font-family="Arial,Arial_MSFontService,sans-serif" font-weight="400" font-size="83" transform="matrix(1 0 0 1 1423.35 429)">(</text><text font-family="Arial,Arial_MSFontService,sans-serif" font-weight="400" font-size="83" transform="matrix(1 0 0 1 1450.85 429)">0,</text><text font-family="Arial,Arial_MSFontService,sans-serif" font-weight="400" font-size="83" transform="matrix(1 0 0 1 1542.51 429)">0</text><text font-family="Arial,Arial_MSFontService,sans-serif" font-weight="400" font-size="83" transform="matrix(1 0 0 1 1588.35 429)">, L</text><text font-family="Arial,Arial_MSFontService,sans-serif" font-weight="400" font-size="83" transform="matrix(1 0 0 1 1680.01 429)">)</text><text font-family="Arial,Arial_MSFontService,sans-serif" font-weight="400" font-size="83" transform="matrix(1 0 0 1 3080.2 618)">P5 </text><text font-family="Arial,Arial_MSFontService,sans-serif" font-weight="400" font-size="83" transform="matrix(1 0 0 1 3203.95 618)">(</text><text font-family="Arial,Arial_MSFontService,sans-serif" font-weight="400" font-size="83" transform="matrix(1 0 0 1 3231.45 618)">X,</text><text font-family="Arial,Arial_MSFontService,sans-serif" font-weight="400" font-size="83" transform="matrix(1 0 0 1 3332.28 618)">ZP</text><text font-family="Arial,Arial_MSFontService,sans-serif" font-weight="400" font-size="83" transform="matrix(1 0 0 1 3427.07 618)">, L</text><text font-family="Arial,Arial_MSFontService,sans-serif" font-weight="400" font-size="83" transform="matrix(1 0 0 1 3518.73 618)">)</text></g></svg>